<svg width="74" height="14" fill="none" xmlns="http://www.w3.org/2000/svg"><path d="M65.224 3.506v7.53h1.066a.486.486 0 0 0 .487-.485V3.02H65.71a.487.487 0 0 0-.487.485ZM57.857 3.506v.986h2.478v6.544h1.552V4.492H63.9a.487.487 0 0 0 .487-.486V3.02h-6.043a.487.487 0 0 0-.487.486ZM48.706 5.656c0-1.626-1.199-2.636-3.128-2.636h-2.2a.487.487 0 0 0-.487.486v7.045c0 .267.219.485.487.485h1.065V4.491h1.278c.882 0 1.388.425 1.388 1.165s-.506 1.164-1.388 1.164h-.94l2.474 3.979.01.014c.09.14.242.223.41.223h1.483l-1.916-3.063c.946-.43 1.464-1.246 1.464-2.317ZM53.617 2.866c-1.126 0-2.171.418-2.945 1.177-.785.772-1.218 1.831-1.218 2.985s.433 2.214 1.218 2.985c.774.759 1.82 1.177 2.946 1.177 1.125 0 2.173-.418 2.95-1.177.788-.772 1.223-1.832 1.223-2.985 0-1.153-.434-2.213-1.224-2.985-.776-.759-1.823-1.177-2.95-1.177Zm0 6.798c-1.51 0-2.566-1.084-2.566-2.636s1.055-2.636 2.566-2.636c1.518 0 2.578 1.084 2.578 2.636s-1.06 2.636-2.578 2.636ZM71.41 6.246l-.278-.09c-.843-.267-1.57-.498-1.57-1.017 0-.656.672-.89 1.3-.89.788 0 1.395.475 1.545 1.209l.035.172 1.052-.288a.485.485 0 0 0 .285-.653c-.432-1.107-1.56-1.823-2.873-1.823-1.664 0-2.918.996-2.918 2.317 0 1.479 1.38 1.943 2.206 2.221.123.04.248.08.373.118.95.297 1.848.576 1.848 1.263 0 .576-.57.978-1.388.978-1.07 0-1.665-.707-1.764-1.365l-.028-.182-1.119.306c-.177.061-.289.249-.289.444 0 .097.038.189.038.189.47 1.274 1.626 2.035 3.096 2.035 1.79 0 3.039-1.011 3.039-2.46 0-1.657-1.497-2.135-2.59-2.484ZM41.13 6.611h-3.16v.843c0 .267.218.486.486.486h1.76v.436c-.234.497-.979 1.299-2.368 1.299-1.544 0-2.622-1.088-2.622-2.647 0-1.552 1.056-2.636 2.567-2.636.876 0 1.688.414 2.12 1.078l.065.1 1.565-.414-.104-.186c-.744-1.315-2.072-2.082-3.646-2.104-1.126 0-2.172.418-2.945 1.177-.786.771-1.218 1.831-1.218 2.985s.432 2.214 1.218 2.985c.773.759 1.819 1.177 2.945 1.177.033 0 .065 0 .092-.002h.044c.017 0 .035-.002.05-.003a4.156 4.156 0 0 0 2.496-.936c.476-.39.847-.874 1.102-1.435l.015-.033V7.096a.487.487 0 0 0-.462-.485ZM30.044 3.02h-1.02l-3.951 8.016h1.417a.49.49 0 0 0 .44-.274l.607-1.247a.158.158 0 0 1 .139-.082h3.715c.046 0 .089.02.119.054l.642 1.302a.488.488 0 0 0 .424.247h1.419l-3.906-7.924-.045-.092Zm-.51 2.404 1.234 2.538h-2.469l1.234-2.538Z" fill="#333D47"/><path fill-rule="evenodd" clip-rule="evenodd" d="M17.871 9.073h-5.565c-.18 0-.325.08-.388.198l-.007.017-.721 1.524-.03.064c-.067.108-.206.18-.376.18l-9.15-.001L2.6 9.32l.01-.022c.062-.118.208-.2.388-.2l6.242-.032.043.001h.041c.16-.012.286-.088.344-.196l.002-.002.013-.03.002-.004.71-1.503.011-.022c.063-.119.208-.199.387-.199h5.662c.185 0 .355.08.466.227l.005.006.946 1.729ZM20.544 14l-2.024-3.743-.026-.034v-.002a.588.588 0 0 0-.445-.196l-5.015-.001c-.176 0-.32.077-.384.193l-.018.039-.724 1.533-.01.02c-.063.12-.208.199-.388.199l-10.14-.001a.415.415 0 0 0-.39.221L0 13.996 20.544 14ZM14.36 2.68H8.306a.354.354 0 0 0-.342.222l-.843 2.07-.008.02a.357.357 0 0 1-.333.199H4.925L7.622.231A.354.354 0 0 1 7.969 0h4.674c.154 0 .298.08.382.197l.002.002c.003.005.02.03.021.034l1.313 2.448Zm1.925 3.483L15.022 3.85a.505.505 0 0 0-.414-.22H8.92c-.162 0-.291.08-.347.199a.135.135 0 0 0-.01.021L7.7 5.886a.306.306 0 0 1-.037.089.377.377 0 0 1-.308.167H4.589a.4.4 0 0 0-.354.215l-.942 1.7 5.452.058a.372.372 0 0 0 .266-.153l.048-.113.616-1.455.002-.004c.003-.01.007-.02.012-.029 0 0 0-.002.002-.003.057-.117.186-.195.345-.195h6.25Z" fill="#00796B"/></svg>